<svg id="Capa_1" enable-background="new 0 0 512 512" height="512" viewBox="0 0 512 512" width="512" xmlns="http://www.w3.org/2000/svg"><g><path d="m361 225h-30v-15c0-41.353-33.647-75-75-75s-75 33.647-75 75v15h-30v122h210zm-60 0h-30v60h-30v-60h-30v-15c0-24.814 20.186-45 45-45s45 20.186 45 45z"/><path d="m31 377c0 24.814 20.186 45 45 45 12.101 0 23.055-4.856 31.15-12.653l104.401 52.2c-.221 1.807-.551 3.585-.551 5.453 0 24.814 20.186 45 45 45s45-20.186 45-45c0-1.868-.33-3.646-.551-5.453l104.401-52.2c8.095 7.797 19.049 12.653 31.15 12.653 24.814 0 45-20.186 45-45 0-19.53-12.578-36.024-30-42.237v-157.526c17.422-6.213 30-22.707 30-42.237 0-24.814-20.186-45-45-45-12.101 0-23.055 4.856-31.15 12.653l-104.401-52.2c.221-1.807.551-3.585.551-5.453 0-24.814-20.186-45-45-45s-45 20.186-45 45c0 1.868.33 3.646.551 5.453l-104.401 52.2c-8.095-7.797-19.049-12.653-31.15-12.653-24.814 0-45 20.186-45 45 0 19.53 12.578 36.024 30 42.237v157.526c-17.422 6.213-30 22.707-30 42.237zm60-199.763c17.422-6.213 30-22.707 30-42.237 0-1.868-.33-3.646-.551-5.453l104.401-52.2c8.095 7.797 19.049 12.653 31.15 12.653s23.055-4.856 31.15-12.653l104.401 52.2c-.221 1.807-.551 3.585-.551 5.453 0 19.53 12.578 36.024 30 42.237v157.526c-17.422 6.213-30 22.707-30 42.237 0 1.868.33 3.646.551 5.453l-104.401 52.2c-8.095-7.797-19.049-12.653-31.15-12.653s-23.055 4.856-31.15 12.653l-104.401-52.2c.221-1.807.551-3.585.551-5.453 0-19.53-12.578-36.024-30-42.237z"/></g></svg>