<?xml version="1.0" encoding="iso-8859-1"?>
<!-- Generator: Adobe Illustrator 19.0.0, SVG Export Plug-In . SVG Version: 6.00 Build 0)  -->
<svg version="1.1" id="Capa_1" xmlns="http://www.w3.org/2000/svg" xmlns:xlink="http://www.w3.org/1999/xlink" x="0px" y="0px"
	 viewBox="0 0 314.6 314.6" style="enable-background:new 0 0 314.6 314.6;" xml:space="preserve">
<circle style="fill:#FFFFFF;" cx="106.15" cy="122.7" r="32.9"/>
<circle style="fill:#FFD552;" cx="106.15" cy="122.7" r="24.7"/>
<path style="fill:#4A555F;" d="M107.75,157.4l-0.2-3.7c1.1-0.1,2.3-0.2,3.4-0.4l0.6,3.6C110.35,157.2,109.05,157.4,107.75,157.4z
	 M103.85,157.4c-1.3-0.1-2.6-0.2-3.8-0.5l0.6-3.6c1.1,0.2,2.3,0.3,3.4,0.4L103.85,157.4z M115.35,156.2l-1-3.5
	c1.1-0.3,2.2-0.7,3.3-1.1l1.4,3.4C117.85,155.4,116.55,155.9,115.35,156.2z M96.25,156l-0.5-0.2c-1.1-0.3-2.1-0.7-3.1-1.1l1.4-3.4
	c0.9,0.4,1.9,0.7,2.8,1l0.4,0.1L96.25,156z M122.55,153.3l-1.7-3.2c1-0.5,2-1.1,3-1.8l2.1,3C124.75,152.1,123.65,152.7,122.55,153.3
	z M89.15,153c-1.1-0.6-2.2-1.3-3.3-2.1l2.1-3c0.9,0.7,1.9,1.3,2.9,1.9L89.15,153z M128.85,149l-2.4-2.8c0.9-0.8,1.7-1.6,2.5-2.4
	l2.7,2.5C130.75,147.2,129.85,148.1,128.85,149z M82.85,148.5c-1-0.9-1.9-1.8-2.7-2.7l2.7-2.4c0.8,0.9,1.6,1.7,2.4,2.5L82.85,148.5z
	 M134.15,143.3l-2.9-2.2c0.7-0.9,1.3-1.9,1.9-2.9l3.2,1.8C135.55,141.2,134.85,142.3,134.15,143.3z M77.75,142.8
	c-0.7-1-1.4-2.1-2.1-3.3l3.2-1.8c0.6,1,1.2,2,1.8,2.9L77.75,142.8z M137.95,136.6l-3.4-1.5c0.5-1,0.9-2.1,1.2-3.2
	c0.2-0.6,0.4-1.2,0.5-1.8l3.6,0.9c-0.2,0.7-0.4,1.3-0.6,2C138.95,134.3,138.45,135.5,137.95,136.6z M74.05,136
	c-0.5-1.2-0.9-2.4-1.3-3.6l3.5-1c0.3,1.1,0.7,2.2,1.1,3.3L74.05,136z M71.85,128.6c-0.2-1.3-0.4-2.6-0.4-3.8l3.7-0.2
	c0.1,1.1,0.2,2.3,0.4,3.4L71.85,128.6z M140.65,127.2l-3.6-0.5c0.2-1.1,0.2-2.3,0.3-3.4l3.7,0.1
	C140.85,124.7,140.75,126,140.65,127.2z M75.05,121.1l-3.7-0.2c0.1-1.3,0.2-2.6,0.4-3.8l3.6,0.6C75.25,118.8,75.15,120,75.05,121.1z
	 M137.15,119.9c-0.1-1.1-0.3-2.3-0.5-3.4l3.6-0.7c0.3,1.3,0.4,2.5,0.6,3.8L137.15,119.9z M76.15,114.3l-3.5-1c0.1-0.3,0.2-0.7,0.3-1
	c0.3-0.9,0.6-1.8,0.9-2.7l3.4,1.4c-0.3,0.8-0.6,1.6-0.8,2.4C76.35,113.7,76.25,114,76.15,114.3z M135.75,113.1
	c-0.4-1.1-0.8-2.2-1.2-3.2l3.3-1.5c0.5,1.2,1,2.4,1.4,3.6L135.75,113.1z M78.75,107.9l-3.2-1.7c0.6-1.1,1.3-2.2,2-3.3l3,2.1
	C79.95,105.9,79.35,106.9,78.75,107.9z M132.95,106.8c-0.6-1-1.2-2-1.9-2.9l2.9-2.2c0.8,1,1.5,2.1,2.1,3.2L132.95,106.8z
	 M82.65,102.2l-2.8-2.4c0.8-1,1.8-1.9,2.7-2.8l2.5,2.7C84.25,100.5,83.45,101.4,82.65,102.2z M128.75,101.3
	c-0.8-0.8-1.6-1.6-2.5-2.4l2.4-2.8c1,0.8,1.9,1.7,2.8,2.7L128.75,101.3z M87.75,97.6l-2.2-3c1-0.8,2.1-1.5,3.2-2.1l1.8,3.2
	C89.65,96.2,88.75,96.9,87.75,97.6z M123.45,96.8c-1-0.6-2-1.2-3-1.8l1.7-3.2c1.1,0.6,2.3,1.3,3.3,2L123.45,96.8z M93.75,94.1
	l-1.5-3.4c1.2-0.5,2.4-1,3.6-1.3l1.1,3.5C95.95,93.3,94.85,93.7,93.75,94.1z M117.35,93.7c-0.6-0.2-1.3-0.5-2-0.7
	c-0.4-0.1-0.9-0.3-1.3-0.4l0.9-3.5c0.5,0.1,1,0.3,1.5,0.4c0.7,0.2,1.5,0.5,2.2,0.8L117.35,93.7z M100.35,92.1l-0.7-3.6
	c1.3-0.2,2.5-0.4,3.8-0.5l0.3,3.7C102.65,91.7,101.45,91.9,100.35,92.1z M110.65,91.9c-1.1-0.2-2.3-0.3-3.4-0.3l0.1-3.7
	c1.3,0,2.6,0.2,3.8,0.4L110.65,91.9z"/>
<circle style="fill:#FFFFFF;" cx="157.75" cy="207.3" r="32.9"/>
<circle style="fill:#FFD552;" cx="157.75" cy="207.3" r="24.7"/>
<path style="fill:#4A555F;" d="M159.35,242.1l-0.2-3.7c1.1-0.1,2.3-0.2,3.4-0.3l0.6,3.6C161.95,241.9,160.65,242,159.35,242.1z
	 M155.45,242.1c-1.3-0.1-2.6-0.2-3.8-0.5l0.6-3.6c1.1,0.2,2.3,0.3,3.4,0.4L155.45,242.1z M166.95,240.9l-1-3.5
	c1.1-0.3,2.2-0.7,3.3-1.1l1.4,3.4C169.45,240.1,168.15,240.5,166.95,240.9z M147.85,240.7l-0.5-0.2c-1.1-0.3-2.1-0.7-3.1-1.1
	l1.4-3.4c0.9,0.4,1.9,0.7,2.8,1l0.4,0.1L147.85,240.7z M174.15,238l-1.7-3.2c1-0.5,2-1.1,3-1.8l2.1,3
	C176.35,236.7,175.25,237.4,174.15,238z M140.75,237.7c-1.1-0.6-2.2-1.3-3.3-2.1l2.1-3c0.9,0.7,1.9,1.3,2.9,1.9L140.75,237.7z
	 M180.45,233.7l-2.4-2.8c0.9-0.8,1.7-1.6,2.5-2.4l2.7,2.5C182.35,231.9,181.45,232.8,180.45,233.7z M134.45,233.2
	c-1-0.9-1.9-1.8-2.7-2.7l2.7-2.4c0.8,0.9,1.6,1.7,2.4,2.5L134.45,233.2z M185.75,228l-2.9-2.2c0.7-0.9,1.3-1.9,1.9-2.9l3.2,1.8
	C187.25,225.9,186.45,227,185.75,228z M129.35,227.4c-0.7-1-1.4-2.1-2.1-3.3l3.2-1.8c0.6,1,1.2,2,1.8,2.9L129.35,227.4z
	 M189.55,221.3l-3.4-1.5c0.5-1,0.9-2.1,1.2-3.2c0.2-0.6,0.4-1.2,0.5-1.8l3.6,0.9c-0.2,0.7-0.4,1.3-0.6,2
	C190.55,218.9,190.15,220.2,189.55,221.3z M125.65,220.7c-0.5-1.2-0.9-2.4-1.3-3.6l3.5-1c0.3,1.1,0.7,2.2,1.1,3.3L125.65,220.7z
	 M123.45,213.3c-0.2-1.3-0.4-2.6-0.4-3.8l3.7-0.2c0.1,1.1,0.2,2.3,0.4,3.4L123.45,213.3z M192.25,211.9l-3.6-0.5
	c0.2-1.1,0.2-2.3,0.3-3.4l3.7,0.1C192.45,209.3,192.35,210.6,192.25,211.9z M126.65,205.8l-3.7-0.2c0.1-1.3,0.2-2.6,0.4-3.8l3.6,0.6
	C126.85,203.5,126.75,204.6,126.65,205.8z M188.75,204.5c-0.1-1.1-0.3-2.3-0.5-3.4l3.6-0.7c0.3,1.3,0.4,2.5,0.6,3.8L188.75,204.5z
	 M127.75,199l-3.5-1c0.1-0.3,0.2-0.7,0.3-1c0.3-0.9,0.6-1.8,0.9-2.7l3.4,1.4c-0.3,0.8-0.6,1.6-0.8,2.4
	C127.95,198.4,127.85,198.7,127.75,199z M187.35,197.8c-0.4-1.1-0.8-2.2-1.2-3.2l3.3-1.5c0.5,1.2,1,2.4,1.4,3.6L187.35,197.8z
	 M130.35,192.6l-3.2-1.7c0.6-1.1,1.3-2.2,2-3.3l3,2.1C131.55,190.6,130.95,191.6,130.35,192.6z M184.55,191.5c-0.6-1-1.2-2-1.9-2.9
	l2.9-2.2c0.8,1,1.5,2.1,2.1,3.2L184.55,191.5z M134.35,186.9l-2.8-2.4c0.8-1,1.8-1.9,2.7-2.8l2.5,2.7
	C135.85,185.2,135.05,186,134.35,186.9z M180.35,186c-0.8-0.8-1.6-1.6-2.5-2.4l2.4-2.8c1,0.8,1.9,1.7,2.8,2.7L180.35,186z
	 M139.35,182.2l-2.2-3c1-0.8,2.1-1.5,3.2-2.1l1.8,3.2C141.25,180.9,140.35,181.6,139.35,182.2z M175.15,181.5c-1-0.6-2-1.2-3-1.8
	l1.7-3.2c1.1,0.6,2.3,1.3,3.3,2L175.15,181.5z M145.35,178.8l-1.5-3.4c1.2-0.5,2.4-1,3.6-1.3l1.1,3.5
	C147.55,177.9,146.45,178.3,145.35,178.8z M168.95,178.3c-0.6-0.2-1.3-0.5-2-0.7c-0.4-0.1-0.9-0.3-1.3-0.4l0.9-3.5
	c0.5,0.1,1,0.3,1.5,0.4c0.7,0.2,1.5,0.5,2.2,0.8L168.95,178.3z M151.95,176.8l-0.7-3.6c1.3-0.2,2.5-0.4,3.8-0.5l0.3,3.7
	C154.25,176.4,153.15,176.6,151.95,176.8z M162.25,176.6c-1.1-0.2-2.3-0.3-3.4-0.3l0.1-3.7c1.3,0,2.6,0.2,3.8,0.4L162.25,176.6z"/>
<circle style="fill:#FFFFFF;" cx="207.25" cy="119.7" r="32.9"/>
<circle style="fill:#FFD552;" cx="207.25" cy="119.7" r="24.7"/>
<path style="fill:#4A555F;" d="M208.85,154.5l-0.2-3.7c1.1-0.1,2.3-0.2,3.4-0.4l0.6,3.6C211.45,154.3,210.15,154.4,208.85,154.5z
	 M204.95,154.4c-1.3-0.1-2.6-0.2-3.8-0.5l0.6-3.6c1.1,0.2,2.3,0.3,3.4,0.4L204.95,154.4z M216.45,153.3l-1-3.5
	c1.1-0.3,2.2-0.7,3.3-1.1l1.4,3.4C218.95,152.5,217.75,152.9,216.45,153.3z M197.45,153.1l-0.5-0.2c-1.1-0.3-2.1-0.7-3.1-1.1
	l1.4-3.4c0.9,0.4,1.9,0.7,2.8,1l0.4,0.1L197.45,153.1z M223.65,150.4l-1.7-3.2c1-0.5,2-1.1,3-1.8l2.1,3
	C225.85,149.1,224.75,149.8,223.65,150.4z M190.25,150.1c-1.1-0.6-2.2-1.3-3.3-2.1l2.1-3c0.9,0.7,1.9,1.3,2.9,1.9L190.25,150.1z
	 M229.95,146.1l-2.4-2.8c0.9-0.8,1.7-1.6,2.5-2.4l2.7,2.5C231.95,144.3,230.95,145.2,229.95,146.1z M184.05,145.6
	c-1-0.9-1.9-1.8-2.7-2.7l2.7-2.4c0.8,0.9,1.6,1.7,2.4,2.5L184.05,145.6z M235.25,140.4l-2.9-2.2c0.7-0.9,1.3-1.9,1.9-2.9l3.2,1.8
	C236.75,138.3,236.05,139.4,235.25,140.4z M178.85,139.8c-0.7-1-1.4-2.1-2.1-3.3l3.2-1.8c0.6,1,1.2,2,1.8,2.9L178.85,139.8z
	 M239.15,133.7l-3.4-1.5c0.5-1,0.9-2.1,1.2-3.2c0.2-0.6,0.4-1.2,0.5-1.8l3.6,0.9c-0.2,0.7-0.4,1.3-0.6,2
	C240.05,131.3,239.65,132.5,239.15,133.7z M175.15,133.1c-0.5-1.2-0.9-2.4-1.3-3.6l3.5-1c0.3,1.1,0.7,2.2,1.1,3.3L175.15,133.1z
	 M173.05,125.7c-0.2-1.3-0.4-2.6-0.4-3.8l3.7-0.2c0.1,1.1,0.2,2.3,0.4,3.4L173.05,125.7z M241.75,124.3l-3.6-0.5
	c0.2-1.1,0.2-2.3,0.3-3.4l3.7,0.1C242.05,121.7,241.95,123,241.75,124.3z M176.15,118.2l-3.7-0.2c0.1-1.3,0.2-2.6,0.4-3.8l3.6,0.6
	C176.35,115.9,176.25,117,176.15,118.2z M238.25,116.9c-0.1-1.1-0.3-2.3-0.5-3.4l3.6-0.7c0.3,1.3,0.4,2.5,0.6,3.8L238.25,116.9z
	 M177.35,111.4l-3.5-1c0.1-0.3,0.2-0.7,0.3-1c0.3-0.9,0.6-1.8,0.9-2.7l3.4,1.4c-0.3,0.8-0.6,1.6-0.8,2.4
	C177.45,110.8,177.35,111.1,177.35,111.4z M236.85,110.2c-0.4-1.1-0.8-2.2-1.2-3.2l3.3-1.5c0.5,1.2,1,2.4,1.4,3.6L236.85,110.2z
	 M179.85,105l-3.2-1.7c0.6-1.1,1.3-2.2,2-3.3l3,2.1C181.05,102.9,180.45,103.9,179.85,105z M234.05,103.9c-0.6-1-1.2-2-1.9-2.9
	l2.9-2.2c0.8,1,1.5,2.1,2.1,3.2L234.05,103.9z M183.85,99.3l-2.8-2.4c0.8-1,1.8-1.9,2.7-2.8l2.5,2.7
	C185.35,97.6,184.55,98.4,183.85,99.3z M229.85,98.4c-0.8-0.8-1.6-1.6-2.5-2.4l2.4-2.8c1,0.8,1.9,1.7,2.8,2.7L229.85,98.4z
	 M188.95,94.6l-2.2-3c1-0.8,2.1-1.5,3.2-2.1l1.8,3.2C190.85,93.3,189.85,93.9,188.95,94.6z M224.65,93.9c-1-0.6-2-1.2-3-1.8l1.7-3.2
	c1.1,0.6,2.3,1.3,3.3,2L224.65,93.9z M194.95,91.2l-1.5-3.4c1.2-0.5,2.4-1,3.6-1.3l1.1,3.5C197.05,90.3,195.95,90.7,194.95,91.2z
	 M218.45,90.7c-0.6-0.2-1.3-0.5-2-0.7c-0.4-0.1-0.9-0.3-1.3-0.4l0.9-3.5c0.5,0.1,1,0.3,1.5,0.4c0.7,0.2,1.5,0.5,2.2,0.8L218.45,90.7
	z M201.45,89.2l-0.7-3.6c1.3-0.2,2.5-0.4,3.8-0.5l0.3,3.7C203.75,88.8,202.65,88.9,201.45,89.2z M211.85,89
	c-1.1-0.2-2.3-0.3-3.4-0.3l0.1-3.7c1.3,0,2.6,0.2,3.8,0.4L211.85,89z"/>
<g>
	<circle style="fill:#F68F6F;" cx="226.45" cy="37.4" r="15.1"/>
	<circle style="fill:#F68F6F;" cx="291.85" cy="142.2" r="15.1"/>
	<circle style="fill:#F68F6F;" cx="284.35" cy="74" r="15.1"/>
</g>
<g>
	
		<rect x="253.747" y="76.997" transform="matrix(-0.5154 -0.8569 0.8569 -0.5154 309.487 356.701)" style="fill:#4A555F;" width="3.7" height="27.699"/>
	
		<rect x="216.851" y="55.297" transform="matrix(-0.9666 -0.2562 0.2562 -0.9666 412.7839 188.9689)" style="fill:#4A555F;" width="3.7" height="24.599"/>
	
		<rect x="246.016" y="132.814" transform="matrix(-0.9785 -0.2061 0.2061 -0.9785 487.1888 320.0795)" style="fill:#4A555F;" width="28.499" height="3.7"/>
</g>
<g>
	<circle style="fill:#F68F6F;" cx="219.55" cy="268.5" r="15.1"/>
	<circle style="fill:#F68F6F;" cx="96.05" cy="270.9" r="15.1"/>
	<circle style="fill:#F68F6F;" cx="158.35" cy="299.5" r="15.1"/>
</g>
<g>
	
		<rect x="144.212" y="263.632" transform="matrix(-0.003 -1 1 -0.003 -106.2926 424.9907)" style="fill:#4A555F;" width="29" height="3.7"/>
	
		<rect x="185.053" y="242.909" transform="matrix(-0.6985 -0.7156 0.7156 -0.6985 160.0543 556.9512)" style="fill:#4A555F;" width="24.6" height="3.7"/>
	
		<rect x="117.678" y="232.598" transform="matrix(-0.7344 -0.6787 0.6787 -0.7344 39.7726 509.2601)" style="fill:#4A555F;" width="3.7" height="28.5"/>
</g>
<g>
	<circle style="fill:#F68F6F;" cx="85.15" cy="37.4" r="15.1"/>
	<circle style="fill:#F68F6F;" cx="19.85" cy="142.2" r="15.1"/>
	<circle style="fill:#F68F6F;" cx="27.25" cy="74" r="15.1"/>
</g>
<g>
	
		<rect x="42.238" y="89.024" transform="matrix(-0.8569 -0.5155 0.5155 -0.8569 57.3044 197.6555)" style="fill:#4A555F;" width="27.7" height="3.7"/>
	
		<rect x="80.64" y="65.736" transform="matrix(-0.2562 -0.9666 0.9666 -0.2562 51.4211 174.7395)" style="fill:#4A555F;" width="24.599" height="3.7"/>
	
		<rect x="49.513" y="120.376" transform="matrix(-0.2061 -0.9785 0.9785 -0.2061 -69.7856 212.6325)" style="fill:#4A555F;" width="3.7" height="28.499"/>
	<rect x="147.05" y="120.8" style="fill:#4A555F;" width="19.6" height="3.7"/>
	
		<rect x="123.224" y="162.362" transform="matrix(-0.5425 -0.84 0.84 -0.5425 67.2473 365.0468)" style="fill:#4A555F;" width="19.599" height="3.7"/>
	
		<rect x="183.563" y="154.398" transform="matrix(-0.84 -0.5425 0.5425 -0.84 252.0855 402.7208)" style="fill:#4A555F;" width="3.7" height="19.599"/>
	<rect x="272.35" y="210.9" style="fill:#4A555F;" width="3.7" height="7.6"/>
	<rect x="272.35" y="231.8" style="fill:#4A555F;" width="3.7" height="7.6"/>
	<rect x="280.85" y="223.3" style="fill:#4A555F;" width="7.6" height="3.7"/>
	<rect x="259.95" y="223.3" style="fill:#4A555F;" width="7.6" height="3.7"/>
	<rect x="169.65" style="fill:#4A555F;" width="3.7" height="7.6"/>
	<rect x="169.65" y="20.9" style="fill:#4A555F;" width="3.7" height="7.6"/>
	<rect x="178.15" y="12.4" style="fill:#4A555F;" width="7.6" height="3.7"/>
	<rect x="157.25" y="12.4" style="fill:#4A555F;" width="7.6" height="3.7"/>
	<rect x="66.05" y="204.3" style="fill:#4A555F;" width="3.7" height="7.6"/>
	<rect x="66.05" y="225.1" style="fill:#4A555F;" width="3.7" height="7.6"/>
	<rect x="74.55" y="216.6" style="fill:#4A555F;" width="7.6" height="3.7"/>
	<rect x="53.65" y="216.6" style="fill:#4A555F;" width="7.6" height="3.7"/>
</g>
<circle style="fill:#F68F6F;" cx="304.65" cy="207.3" r="5.2"/>
<circle style="fill:#71CDE1;" cx="27.25" cy="218.4" r="6.7"/>
<circle style="fill:#E0E0E0;" cx="145.05" cy="40.8" r="3.9"/>
<g>
</g>
<g>
</g>
<g>
</g>
<g>
</g>
<g>
</g>
<g>
</g>
<g>
</g>
<g>
</g>
<g>
</g>
<g>
</g>
<g>
</g>
<g>
</g>
<g>
</g>
<g>
</g>
<g>
</g>
</svg>
