<?xml version="1.0" encoding="UTF-8"?><svg id="a" xmlns="http://www.w3.org/2000/svg" viewBox="0 0 1254.54 533"><defs><style>.b{fill:#349aff;}.c{fill:#3465ff;}.d{stroke-width:5px;}.d,.e{stroke:#3465ff;}.d,.e,.f{fill:none;stroke-miterlimit:10;}.e,.f{stroke-width:36px;}.f{stroke:#349aff;}</style></defs><path class="b" d="M29,154c-16.02,0-29,12.98-29,29s12.98,29,29,29,29-12.98,29-29-12.98-29-29-29Zm0,43.82c-7.83,0-14.18-6.35-14.18-14.18s6.35-14.18,14.18-14.18,14.18,6.35,14.18,14.18-6.35,14.18-14.18,14.18Z"/><path class="c" d="M547,295c-17.67,0-32,14.33-32,32s14.33,32,32,32,32-14.33,32-32-14.33-32-32-32Zm0,51.91c-10.6,0-19.2-8.6-19.2-19.2s8.6-19.2,19.2-19.2,19.2,8.6,19.2,19.2-8.6,19.2-19.2,19.2Z"/><line class="f" x1="197.54" y1="58" x2="197.54" y2="303"/><line class="f" x1="52.5" y1="183" x2="367.5" y2="186"/><path class="e" d="M390.02,159l.89-109c.07-8.25-6.63-15-14.88-15H223.04"/><line class="d" x1="1252.04" y1="168.5" x2="1252.04" y2="169.5"/><path class="b" d="M198,294c-18.23,0-33,14.77-33,33s14.77,33,33,33,33-14.77,33-33-14.77-33-33-33Zm0,53.53c-10.94,0-19.8-8.86-19.8-19.8s8.86-19.8,19.8-19.8,19.8,8.86,19.8,19.8-8.86,19.8-19.8,19.8Z"/><path class="f" d="M172,331l-129-.87c-8.25-.06-15-6.85-15-15.1v-108.03"/><path class="e" d="M546.54,309.5v-107c0-8.25-6.75-15-15-15h-120"/><line class="e" x1="527.54" y1="328" x2="402.54" y2="326"/><line class="e" x1="390" y1="204" x2="390" y2="470"/><line class="f" x1="371.54" y1="328" x2="219.54" y2="328"/><path class="f" d="M193,352v135c0,8.25,6.75,15,15,15h151"/><path class="c" d="M198,0c-19.33,0-35,15.67-35,35s15.67,35,35,35,35-15.67,35-35S217.33,0,198,0Zm0,52.89c-9.45,0-17.11-7.66-17.11-17.11s7.66-17.11,17.11-17.11,17.11,7.66,17.11,17.11-7.66,17.11-17.11,17.11Z"/><path class="c" d="M393,153c-17.12,0-31,13.88-31,31s13.88,31,31,31,31-13.88,31-31-13.88-31-31-31Zm0,50.29c-10.27,0-18.6-8.33-18.6-18.6s8.33-18.6,18.6-18.6,18.6,8.33,18.6,18.6-8.33,18.6-18.6,18.6Z"/><path class="b" d="M388,465c-18.78,0-34,15.22-34,34s15.22,34,34,34,34-15.22,34-34-15.22-34-34-34Zm0,55.16c-11.27,0-20.4-9.13-20.4-20.4s9.13-20.4,20.4-20.4,20.4,9.13,20.4,20.4-9.13,20.4-20.4,20.4Z"/></svg>